<?xml version="1.0" encoding="utf-8"?>
<!-- Generator: Adobe Illustrator 18.0.0, SVG Export Plug-In . SVG Version: 6.00 Build 0)  -->
<!DOCTYPE svg PUBLIC "-//W3C//DTD SVG 1.1//EN" "http://www.w3.org/Graphics/SVG/1.1/DTD/svg11.dtd">
<svg version="1.1" id="Слой_1" xmlns="http://www.w3.org/2000/svg" xmlns:xlink="http://www.w3.org/1999/xlink" x="0px" y="0px"
	 viewBox="0 0 25.5 25.8" enable-background="new 0 0 25.5 25.8" xml:space="preserve">
<g>
	<g>
		<path fill="#0D0F0F" d="M7.9,25.8c-4.4,0-7.9-3.5-7.9-7.9c0-0.8,0.7-1.5,1.5-1.5S3,17,3,17.8c0,2.7,2.2,4.9,4.9,4.9
			s4.9-2.2,4.9-4.9s-2.2-4.9-4.9-4.9c-0.4,0-0.9,0.1-1.3,0.2C5.9,13.3,5,12.8,4.8,12c-0.2-0.8,0.3-1.6,1.1-1.8
			c0.7-0.2,1.3-0.3,2-0.3c4.4,0,7.9,3.5,7.9,7.9S12.3,25.8,7.9,25.8z"/>
	</g>
	<g>
		<path fill="#0D0F0F" d="M18.4,15.2c-0.7,0-1.4-0.5-1.5-1.2c-0.5-2.8-2.8-5.1-5.7-5.4C10.5,8.4,9.9,7.6,10,6.8
			c0.1-0.8,0.9-1.4,1.7-1.3c4.2,0.5,7.5,3.8,8.3,7.9c0.1,0.8-0.4,1.6-1.2,1.7C18.6,15.2,18.5,15.2,18.4,15.2z"/>
	</g>
	<g>
		<path fill="#0D0F0F" d="M24,15.2c-0.8,0-1.4-0.6-1.5-1.3C21.9,8,17.2,3.4,11.3,3C10.5,2.9,9.9,2.2,10,1.4C10,0.6,10.7-0.1,11.6,0
			c7.3,0.5,13.1,6.2,13.9,13.5c0.1,0.8-0.5,1.6-1.3,1.6C24.1,15.2,24,15.2,24,15.2z"/>
	</g>
	<g>
		<path fill="#0D0F0F" d="M1.5,19.3c-0.8,0-1.5-0.7-1.5-1.5V5.4c0-0.8,0.7-1.5,1.5-1.5S3,4.6,3,5.4v12.4C3,18.7,2.3,19.3,1.5,19.3z"
			/>
	</g>
</g>
</svg>
