<?xml version="1.0" encoding="utf-8"?>
<!-- Generator: Adobe Illustrator 19.0.0, SVG Export Plug-In . SVG Version: 6.00 Build 0)  -->
<svg version="1.1" id="Слой_1" xmlns="http://www.w3.org/2000/svg" xmlns:xlink="http://www.w3.org/1999/xlink" x="0px" y="0px"
	 viewBox="0 0 34 34" style="enable-background:new 0 0 34 34;" xml:space="preserve">
<style type="text/css">
	.st0{fill-rule:evenodd;clip-rule:evenodd;fill:#010203;}
</style>
<path class="st0" d="M30.4,6.5c-4.1,6.2-8.2,12.3-12.3,18.5c-0.9,1.3-2.6,1.3-3.5,0c-2.1-3.1-4.3-6.1-6.4-9.2c-1.5-2.1,2-4.1,3.5-2
	c1.5,2.2,3.1,4.4,4.6,6.6c3.7-5.6,7.4-11.2,11.2-16.8C24.6,1.4,21,0,17,0C7.6,0,0,7.6,0,17c0,9.4,7.6,17,17,17s17-7.6,17-17
	C34,13.1,32.6,9.4,30.4,6.5z"/>
</svg>
