<?xml version="1.0" encoding="utf-8"?>
<!-- Generator: Adobe Illustrator 19.0.0, SVG Export Plug-In . SVG Version: 6.00 Build 0)  -->
<svg version="1.1" id="Layer_1" xmlns:sketch="http://www.bohemiancoding.com/sketch/ns"
	 xmlns="http://www.w3.org/2000/svg" xmlns:xlink="http://www.w3.org/1999/xlink" x="0px" y="0px" viewBox="-259.9 462.1 37.9 37.9"
	 style="enable-background:new -259.9 462.1 37.9 37.9;" xml:space="preserve">
<title>Fill 46</title>
<desc>Created with Sketch.</desc>
<g id="Page-1" sketch:type="MSPage">
	<path id="Fill-46" sketch:type="MSShapeGroup" d="M-238.3,499.9h-5.3l-1.5-4.6c-1-0.3-2-0.7-2.9-1.2l-4.4,2.2l-3.8-3.8l2.2-4.4
		c-0.5-0.9-0.9-1.9-1.2-2.9l-4.6-1.5v-5.3l4.6-1.5c0.3-1,0.7-2,1.2-2.9l-2.2-4.4l3.8-3.8l4.4,2.2c0.9-0.5,1.9-0.9,2.9-1.2l1.5-4.6
		h5.3l1.5,4.6c1,0.3,2,0.7,2.9,1.2l4.4-2.2l3.8,3.8l-2.2,4.4c0.5,0.9,0.9,1.9,1.2,2.9l4.6,1.5v5.3l-4.6,1.5c-0.3,1-0.7,2-1.2,2.9
		l2.2,4.4l-3.8,3.8l-4.4-2.2c-0.9,0.5-1.9,0.9-2.9,1.2L-238.3,499.9z M-241,489c4.4,0,8-3.6,8-8s-3.6-8-8-8c-4.4,0-8,3.6-8,8
		S-245.4,489-241,489z"/>
</g>
</svg>
