<?xml version="1.0" encoding="utf-8"?>
<!-- Generator: Adobe Illustrator 18.0.0, SVG Export Plug-In . SVG Version: 6.00 Build 0)  -->
<!DOCTYPE svg PUBLIC "-//W3C//DTD SVG 1.1//EN" "http://www.w3.org/Graphics/SVG/1.1/DTD/svg11.dtd">
<svg version="1.1" id="Слой_1" xmlns="http://www.w3.org/2000/svg" xmlns:xlink="http://www.w3.org/1999/xlink" x="0px" y="0px"
	 viewBox="0 0 22 22.8" enable-background="new 0 0 22 22.8" xml:space="preserve">
<g>
	<path fill="#0D0F0F" d="M7.2,21.7c-2.7,0-4.7-1.7-4.7-3.8c0-2,2.4-3.7,5.1-3.7c0.6,0,1.2,0.1,1.8,0.3c1.5,1,2.5,1.6,2.8,2.8
		c0.1,0.2,0.1,0.5,0.1,0.7C12.4,20.1,11,21.7,7.2,21.7 M7.9,9.6c-1.8-0.1-3.6-2-3.9-4.4C3.8,2.8,5,0.9,6.8,1c1.8,0.1,3.6,2,3.9,4.4
		C11,7.8,9.8,9.7,7.9,9.6 M11.7,13.1c-0.6-0.5-1.9-1.6-1.9-2.2c0-0.8,0.2-1.1,1.4-2c1.2-0.9,2-2.2,2-3.7c0-1.8-0.8-3.5-2.3-4.1h2.2
		L14.7,0H7.7C4.5,0,1.5,2.4,1.5,5.2c0,2.8,2.2,5.1,5.4,5.1c0.2,0,0.4,0,0.7,0c-0.2,0.4-0.4,0.9-0.4,1.3c0,0.8,0.4,1.4,1,2
		c-0.4,0-0.8,0-1.2,0C3,13.6,0,16.1,0,18.7c0,2.6,3.3,4.2,7.2,4.2c4.5,0,6.9-2.5,6.9-5.1C14.2,15.7,13.6,14.5,11.7,13.1 M22,9.8
		h-2.8V7.1H17v2.8h-2.8V12H17v2.8h2.2V12H22V9.8z"/>
</g>
</svg>
