<?xml version="1.0" encoding="utf-8"?>
<!-- Generator: Adobe Illustrator 19.0.1, SVG Export Plug-In . SVG Version: 6.00 Build 0)  -->
<svg version="1.1" id="Слой_1" xmlns="http://www.w3.org/2000/svg" xmlns:xlink="http://www.w3.org/1999/xlink" x="0px" y="0px"
	 viewBox="0 0 180.4 180.4" style="enable-background:new 0 0 180.4 180.4;" xml:space="preserve">
<style type="text/css">
	.st0{display:none;fill:#939393;}
	.st1{fill:#939393;}
</style>
<path class="st0" d="M90.3,180.4c-22.3,0-44.7,0-67,0C8.8,180.4,0.1,171.7,0,157c0-44.8,0-89.6,0-134.5C0.1,8,8.8-0.8,23.3-0.8
	c45,0,90,0,135,0c14.5,0,23.3,8.8,23.3,23.4c0,44.8,0,89.6,0,134.5c0,14.6-8.8,23.4-23.3,23.4C135.6,180.5,113,180.4,90.3,180.4z
	 M140.2,75.9c8.2,43.2-22.1,65.1-47.7,65.3C41.7,141.7,37.6,97.5,41.8,76c-5.7,0-20.7,0-26.2,0c0,2,0,3.7,0,5.3c0,22.7,0,45.3,0,68
	c0,8.6,6.7,15.3,15.2,15.3c40,0,80,0,120,0c8.1,0,15.1-7,15.1-14.9c0-23,0-46,0-69c0-1.6-0.2-3.2-0.3-4.8
	C160.1,75.9,145.2,75.9,140.2,75.9z M56.6,89.7c0,19,15.4,34.5,34.2,34.5c18.9,0,34.2-15.5,34.2-34.5c0-18.7-15.2-34-33.9-34.2
	C72.3,55.2,56.6,70.8,56.6,89.7z M143.7,20.3c-3.2,0-6.3-0.1-9.5,0c-5.4,0.1-8.1,2.7-8.2,7.9c-0.1,6.3-0.1,12.7,0,19
	c0.1,5.1,2.7,7.8,7.7,7.9c6.5,0.2,13,0.1,19.5,0c4.8-0.1,7.5-2.7,7.7-7.4c0.2-6.7,0.2-13.3,0-20c-0.1-4.7-2.9-7.3-7.6-7.4
	C150,20.2,146.8,20.3,143.7,20.3z"/>
<path class="st1" d="M127.4,0H53.1C23.8,0,0,23.8,0,53.1v74.3c0,29.3,23.8,53.1,53.1,53.1h74.3c29.3,0,53.1-23.8,53.1-53.1V53.1
	C180.4,23.8,156.6,0,127.4,0z M126.6,29c0-5.3,4.4-9.7,9.7-9.7h7.1c5.3,0,9.7,4.4,9.7,9.7v7.1c0,5.3-4.4,9.7-9.7,9.7h-7.1
	c-5.3,0-9.7-4.4-9.7-9.7V29z M91.8,57.9c19.2,0,34.8,15.6,34.8,34.8s-15.6,34.8-34.8,34.8c-19.2,0-34.8-15.6-34.8-34.8
	S72.6,57.9,91.8,57.9z M170.1,127.4c0,23.5-19.2,42.7-42.7,42.7H53.1c-23.5,0-42.7-19.2-42.7-42.7V77.6h38.4
	c-1.6,4.6-2.5,9.6-2.5,14.7c0,25.1,20.4,45.5,45.5,45.5s45.5-20.4,45.5-45.5c0-5.2-0.9-10.1-2.5-14.7h35.2V127.4z"/>
</svg>
