<?xml version="1.0" encoding="utf-8"?>
<!-- Generator: Adobe Illustrator 18.0.0, SVG Export Plug-In . SVG Version: 6.00 Build 0)  -->
<!DOCTYPE svg PUBLIC "-//W3C//DTD SVG 1.1//EN" "http://www.w3.org/Graphics/SVG/1.1/DTD/svg11.dtd">
<svg version="1.1" id="Слой_1" xmlns="http://www.w3.org/2000/svg" xmlns:xlink="http://www.w3.org/1999/xlink" x="0px" y="0px"
	 viewBox="0 0 35 35" enable-background="new 0 0 35 35" xml:space="preserve">
<g>
	<g>
		<path fill-rule="evenodd" clip-rule="evenodd" fill="#0C0E0F" d="M10.5,29.5c-0.3,0.3-0.5,0.4-0.8,0.6c-1.1,0.9-2.2,0.9-3.2-0.1
			l-1.3-1.2c-1.1-1.1-1.2-2.3,0-3.5l4.1-4c0.1-0.1,0.1-0.1,0.2-0.2l4.1-4.1c-1.6-1.4-4.1-1.4-5.6,0.2l-6.6,6.6
			c-1.6,1.6-1.6,4.2,0,5.8l4.2,4.2c1.6,1.6,4.2,1.6,5.8,0l6.6-6.6c1.5-1.5,1.6-3.8,0.3-5.4L10.5,29.5z M33.8,5.4l-4.2-4.2
			c-1.6-1.6-4.2-1.6-5.8,0l-6.6,6.6c-1.5,1.5-1.6,4-0.2,5.6l7.6-7.7c0.2-0.2,0.4-0.3,0.6-0.5c1.1-1.1,2.2-1.1,3.3,0l0.3,0.2
			c0.1,0.1,0.2,0.1,0.3,0.2L29.3,6c0,0,0,0,0,0l0.4,0.3c1.1,1.1,1.2,2.5,0.1,3.6l-1.5,1.5l-6.6,6.6c1.6,1.3,4,1.2,5.4-0.3l6.6-6.6
			C35.4,9.6,35.4,7,33.8,5.4z M11.6,23.4l0.1,0.1c0.6,0.6,1.6,0.6,2.3,0l9.4-9.5c0.6-0.6,0.6-1.6,0-2.3l-0.1-0.1
			c-0.6-0.6-1.6-0.6-2.3,0l-9.4,9.5C11,21.8,11,22.8,11.6,23.4z"/>
	</g>
</g>
</svg>
