<?xml version="1.0" encoding="utf-8"?>
<!-- Generator: Adobe Illustrator 18.0.0, SVG Export Plug-In . SVG Version: 6.00 Build 0)  -->
<!DOCTYPE svg PUBLIC "-//W3C//DTD SVG 1.1//EN" "http://www.w3.org/Graphics/SVG/1.1/DTD/svg11.dtd">
<svg version="1.1" id="Слой_1" xmlns="http://www.w3.org/2000/svg" xmlns:xlink="http://www.w3.org/1999/xlink" x="0px" y="0px"
	 viewBox="0 0 33 34" enable-background="new 0 0 33 34" xml:space="preserve">
<g>
	<g>
		<path fill-rule="evenodd" clip-rule="evenodd" fill="#0C0E0F" d="M16.5,0C7.4,0,0,6.7,0,14.9c0,4.8,2.1,9.4,6,12.1v7l7-4.6
			c1.1,0.2,2.3,0.3,3.5,0.3c9.1,0,16.5-6.7,16.5-14.9C33,6.7,25.6,0,16.5,0z M8.5,18C7.1,18,6,16.9,6,15.5C6,14.1,7.1,13,8.5,13
			c1.4,0,2.5,1.1,2.5,2.5C11,16.9,9.9,18,8.5,18z M16.5,18c-1.4,0-2.5-1.1-2.5-2.5c0-1.4,1.1-2.5,2.5-2.5c1.4,0,2.5,1.1,2.5,2.5
			C19,16.9,17.9,18,16.5,18z M24.5,18c-1.4,0-2.5-1.1-2.5-2.5c0-1.4,1.1-2.5,2.5-2.5c1.4,0,2.5,1.1,2.5,2.5C27,16.9,25.9,18,24.5,18
			z"/>
	</g>
</g>
</svg>
