<?xml version="1.0" encoding="utf-8"?>
<!-- Generator: Adobe Illustrator 18.0.0, SVG Export Plug-In . SVG Version: 6.00 Build 0)  -->
<!DOCTYPE svg PUBLIC "-//W3C//DTD SVG 1.1//EN" "http://www.w3.org/Graphics/SVG/1.1/DTD/svg11.dtd">
<svg version="1.1" id="Слой_1" xmlns="http://www.w3.org/2000/svg" xmlns:xlink="http://www.w3.org/1999/xlink" x="0px" y="0px"
	 viewBox="0 0 41 35" enable-background="new 0 0 41 35" xml:space="preserve">
<g>
	<g>
		<path fill-rule="evenodd" clip-rule="evenodd" fill="#0C0E0F" d="M36.8,0.7L26,8.3V8h0v13h0v0.7l10.8,7.5c0,0,4.2,3.4,4.2-4.2V4.9
			C41-2.6,36.8,0.7,36.8,0.7z M6,8c-3.4,0.3-6,3.1-6,6.5c0,3.4,2.6,6.2,6,6.5v0h3.3c-0.2,0.6-0.3,1.2-0.2,1.8l2.1,9.5
			c0.3,1.8,2.1,2.9,4,2.6c1.9-0.3,3.1-2,2.8-3.7l-2.1-9.5c0-0.2-0.1-0.5-0.2-0.7H23V8L6,8L6,8z"/>
	</g>
</g>
</svg>
