<?xml version="1.0" encoding="utf-8"?>
<!-- Generator: Adobe Illustrator 18.0.0, SVG Export Plug-In . SVG Version: 6.00 Build 0)  -->
<!DOCTYPE svg PUBLIC "-//W3C//DTD SVG 1.1//EN" "http://www.w3.org/Graphics/SVG/1.1/DTD/svg11.dtd">
<svg version="1.1" id="Слой_1" xmlns="http://www.w3.org/2000/svg" xmlns:xlink="http://www.w3.org/1999/xlink" x="0px" y="0px"
	 viewBox="0 0 22.6 18.7" enable-background="new 0 0 22.6 18.7" xml:space="preserve">
<g>
	<path fill="#0D0F0F" d="M22.6,2.1c-0.8,0.4-1.7,0.6-2.7,0.8c1-0.6,1.7-1.5,2-2.6c-0.9,0.5-1.9,0.9-3,1.2C18.2,0.5,16.9,0,15.6,0
		C13,0,10.9,2.2,11,4.7c0,0.4,0,0.7,0.1,1.1C7.2,5.7,3.7,3.8,1.4,1C1,1.7,0.8,2.5,0.8,3.4c0,1.6,0.9,3,2.1,3.9
		c-0.8,0-1.5-0.2-2.1-0.6l0,0.1c0,2.3,1.7,4.1,3.8,4.5c-0.4,0.1-0.8,0.2-1.2,0.2c-0.3,0-0.6,0-0.9-0.1c0.6,1.9,2.4,3.2,4.4,3.2
		c-1.6,1.3-3.6,2.1-5.8,2.1c-0.4,0-0.8,0-1.1-0.1c2.1,1.3,4.6,2,7.2,2c8.6-0.1,13.2-7.3,13.2-13.5c0-0.2,0-0.4,0-0.6
		C21.2,3.9,22,3.1,22.6,2.1"/>
</g>
</svg>
